<?xml version="1.0" ?><svg id="Icons" viewBox="0 0 24 24" xmlns="http://www.w3.org/2000/svg"><defs><style>.cls-1{fill:#232323;}</style></defs><path class="cls-1" d="M23.053,12.683a3.132,3.132,0,0,0-1.737-5.341l-3.909-.568a1.13,1.13,0,0,1-.851-.619L14.808,2.614a3.131,3.131,0,0,0-5.616,0L7.444,6.155a1.13,1.13,0,0,1-.851.619l-3.909.568A3.132,3.132,0,0,0,.947,12.684L3.776,15.44a1.131,1.131,0,0,1,.326,1l-.667,3.892a3.131,3.131,0,0,0,4.542,3.3l3.5-1.838a1.125,1.125,0,0,1,1.052,0h0l3.5,1.838a3.11,3.11,0,0,0,3.3-.239,3.109,3.109,0,0,0,1.245-3.063L19.9,16.441a1.13,1.13,0,0,1,.326-1Zm-4.226,1.325a3.131,3.131,0,0,0-.9,2.772l.667,3.892a1.131,1.131,0,0,1-1.642,1.193l-3.5-1.838a3.134,3.134,0,0,0-2.914,0l-3.5,1.838a1.131,1.131,0,0,1-1.642-1.193l.667-3.891a3.132,3.132,0,0,0-.9-2.773L2.344,11.251a1.132,1.132,0,0,1,.627-1.93L6.88,8.753A3.128,3.128,0,0,0,9.237,7.04L10.985,3.5a1.165,1.165,0,0,1,2.03,0L14.763,7.04A3.128,3.128,0,0,0,17.12,8.753l3.909.568a1.132,1.132,0,0,1,.627,1.93Z"/></svg>